<svg width="98" height="100" viewBox="0 0 98 100" fill="none" xmlns="http://www.w3.org/2000/svg">
<g clip-path="url(#clip0_337_21137)">
<path d="M87.0019 81.5077C86.4686 80.5694 85.2871 80.2477 84.3625 80.7896L77.3385 84.9073C76.4144 85.4491 76.0976 86.6493 76.6314 87.5878C76.9892 88.2173 77.6387 88.5694 78.3067 88.5694C78.6344 88.5694 78.9666 88.4844 79.2709 88.3062L86.2947 84.1883C87.2186 83.6463 87.5356 82.4463 87.0019 81.5077Z" fill="#FA7616"/>
<path d="M97.4994 56.8454C97.4987 56.7655 97.4941 56.6856 97.4837 56.6058C97.483 56.6004 97.4819 56.5951 97.4811 56.5899C97.4713 56.5184 97.4566 56.4475 97.439 56.3767C97.434 56.3569 97.4284 56.3377 97.423 56.3182C97.4069 56.2611 97.3876 56.2048 97.3661 56.1486C97.3586 56.1295 97.3519 56.1097 97.3438 56.0909C97.3141 56.0209 97.2816 55.952 97.2434 55.8844C97.2422 55.8825 97.241 55.8803 97.2399 55.8784C97.2016 55.8111 97.1591 55.7482 97.1145 55.6875C97.1024 55.6709 97.0889 55.6551 97.0763 55.6391C97.0393 55.592 97.0006 55.5471 96.9601 55.5041C96.9463 55.4895 96.9324 55.4749 96.9181 55.4607C96.8668 55.4096 96.8131 55.3614 96.757 55.3169C96.7529 55.3138 96.7493 55.31 96.7453 55.3069C96.6824 55.258 96.6167 55.2139 96.5489 55.1735C96.5439 55.1705 96.5395 55.1666 96.5345 55.1637L74.0909 42.0056V15.6869C74.0909 15.6811 74.0899 15.6759 74.0898 15.6702C74.0891 15.59 74.0843 15.5096 74.0739 15.4294C74.0734 15.4253 74.0724 15.4214 74.0717 15.4175C74.062 15.3444 74.047 15.2721 74.0287 15.1999C74.0241 15.1814 74.0188 15.1628 74.0135 15.1443C73.997 15.0859 73.9774 15.0279 73.9552 14.9704C73.9484 14.9525 73.942 14.9341 73.9345 14.9165C73.9043 14.8453 73.8714 14.7747 73.8321 14.7057C73.7931 14.637 73.7496 14.573 73.7041 14.5109C73.6925 14.495 73.6796 14.48 73.6675 14.4645C73.63 14.4167 73.5908 14.371 73.5496 14.3276C73.5361 14.3134 73.5225 14.2989 73.5086 14.285C73.4571 14.2336 73.4033 14.1853 73.3471 14.1405C73.3432 14.1374 73.3396 14.1339 73.3357 14.1307C73.2728 14.0817 73.2069 14.0376 73.1389 13.997C73.134 13.994 73.1298 13.9904 73.125 13.9876L49.7162 0.262869C49.1185 -0.0875252 48.382 -0.0877205 47.784 0.262869L24.3759 13.9874C24.3713 13.9901 24.3674 13.9935 24.3629 13.9961C24.2944 14.037 24.2283 14.0814 24.1645 14.131C24.1615 14.1333 24.1587 14.136 24.1556 14.1386C24.0985 14.1836 24.044 14.2331 23.9916 14.285C23.978 14.2988 23.9645 14.3127 23.9512 14.3269C23.9101 14.3704 23.8709 14.4161 23.8334 14.464C23.8213 14.4794 23.8084 14.4946 23.7966 14.5106C23.751 14.5725 23.7077 14.6368 23.6687 14.7054C23.6296 14.7741 23.5966 14.8442 23.5666 14.9154C23.5589 14.9337 23.5524 14.9529 23.545 14.9714C23.5231 15.028 23.5039 15.085 23.4875 15.1426C23.4821 15.1616 23.4767 15.1807 23.4717 15.1999C23.4539 15.2712 23.4391 15.3429 23.4293 15.415C23.4288 15.4199 23.4274 15.4244 23.4268 15.4292C23.4164 15.5091 23.4118 15.5894 23.4113 15.6693C23.4113 15.6749 23.41 15.6806 23.41 15.6862V42.0046L0.96605 55.1631C0.961243 55.1659 0.957204 55.1695 0.952587 55.1722C0.884313 55.2129 0.818152 55.2573 0.754877 55.3066C0.7518 55.309 0.748915 55.312 0.745837 55.3143C0.688717 55.3594 0.634289 55.4086 0.581976 55.461C0.568129 55.4746 0.554859 55.4889 0.541396 55.503C0.50043 55.5464 0.461196 55.5919 0.423692 55.6396C0.411384 55.6553 0.398306 55.6707 0.386574 55.6868C0.34157 55.7479 0.298874 55.8114 0.260216 55.8791C0.259639 55.8801 0.25887 55.8811 0.258292 55.8822C0.219635 55.9506 0.186555 56.0201 0.156938 56.0909C0.149053 56.1096 0.142321 56.1291 0.13482 56.1482C0.11328 56.2044 0.0940471 56.2611 0.0776995 56.3182C0.072122 56.3375 0.0667369 56.3569 0.0617364 56.3764C0.0438501 56.4473 0.0292334 56.5184 0.0194249 56.5901C0.0186555 56.5951 0.0175016 56.6003 0.0167322 56.6055C0.00634671 56.6854 0.00173094 56.7655 0.00115396 56.8455C0.00115396 56.8512 0 56.8566 0 56.8624V84.3135C0 85.0147 0.368495 85.6624 0.966242 86.013L24.3762 99.7373C24.3809 99.74 24.3861 99.7418 24.3908 99.7445C24.4595 99.7841 24.5301 99.8201 24.6038 99.8511C24.6083 99.8529 24.6126 99.8543 24.6171 99.856C24.6834 99.8834 24.7518 99.9062 24.8215 99.9261C24.8405 99.9316 24.8597 99.9364 24.8789 99.941C24.9357 99.9552 24.9939 99.9668 25.0526 99.9757C25.0725 99.9789 25.0922 99.9826 25.1122 99.985C25.1877 99.994 25.2642 100 25.342 100C25.4196 100 25.4963 99.994 25.5716 99.985C25.5916 99.9826 25.6114 99.9787 25.6312 99.9757C25.69 99.9668 25.748 99.9555 25.8049 99.941C25.8241 99.9361 25.8434 99.9315 25.8626 99.926C25.932 99.9065 25.9999 99.8834 26.0659 99.8563C26.0706 99.8543 26.0755 99.8529 26.0802 99.8508C26.1538 99.8199 26.2244 99.784 26.2926 99.7445C26.2974 99.7418 26.3026 99.7399 26.3076 99.7371L48.7495 86.579L71.1914 99.7371C71.1964 99.74 71.2015 99.7418 71.2065 99.7448C71.275 99.7841 71.3454 99.8199 71.4186 99.8508C71.4236 99.8529 71.4289 99.8542 71.4339 99.8564C71.4996 99.8836 71.5674 99.9063 71.6366 99.926C71.6559 99.9315 71.6752 99.9361 71.6945 99.941C71.7513 99.9552 71.8092 99.9668 71.868 99.9757C71.888 99.9789 71.9077 99.9826 71.9277 99.985C72.0031 99.994 72.0795 100 72.1574 100C72.2352 100 72.3116 99.994 72.387 99.985C72.407 99.9826 72.4269 99.9787 72.4469 99.9757C72.5055 99.9668 72.5636 99.9555 72.6204 99.941C72.6396 99.9361 72.659 99.9315 72.6783 99.926C72.7475 99.9065 72.815 99.8836 72.8809 99.8564C72.8859 99.8545 72.8911 99.8529 72.8961 99.8508C72.9694 99.8199 73.0397 99.784 73.1082 99.7448C73.1133 99.7418 73.1185 99.74 73.1235 99.7371L96.5335 86.0128C97.1314 85.6624 97.4998 85.0145 97.4998 84.3134V56.8628C97.5005 56.8566 97.4994 56.8512 97.4994 56.8454ZM80.02 50.0131L60.4764 61.472L52.6146 56.8624L72.158 45.4039L80.02 50.0131ZM70.2259 42.0052L50.6825 53.4636V30.5464L70.2259 19.0861V42.0052ZM48.75 4.22814L56.6117 8.83755L37.0679 20.2966L29.2065 15.6869L48.75 4.22814ZM25.342 45.404L33.2026 50.0129L13.6586 61.4715L5.79708 56.8625L25.342 45.404ZM23.4099 94.6396L3.8644 83.1809V60.2614L12.1894 65.1421C12.4473 65.415 12.7714 65.6015 13.1213 65.6884L23.4099 71.7205V94.6396ZM25.3421 68.3214L17.5235 63.7376L37.0671 52.2788L44.8855 56.8628L25.3421 68.3214ZM46.8177 83.1809L27.2744 94.6394V71.7203L46.8177 60.2614V83.1809ZM46.8177 53.4639L27.2744 42.0054V19.0859L35.5942 23.9649C35.8535 24.2404 36.1803 24.4282 36.533 24.5152L46.818 30.5464L46.8177 53.4639ZM40.9326 22.563L60.4764 11.1034L68.2936 15.6869L48.7502 27.1473L40.9326 22.563ZM70.2256 94.6393L50.6825 83.1809V60.2614L59.0074 65.1423C59.2645 65.4144 59.5881 65.6003 59.9374 65.6876L70.2259 71.7199L70.2256 94.6393ZM72.1581 68.3214L64.3409 63.738L83.8846 52.2789L91.703 56.8628L72.1581 68.3214ZM93.6357 83.1809L74.0905 94.6396V71.7203L93.6357 60.2614V83.1809Z" fill="#114335"/>
<path d="M90.1659 77.9636C87.6791 77.9636 87.6751 81.8882 90.1659 81.8882C92.6525 81.8882 92.6566 77.9636 90.1659 77.9636Z" fill="#FA7616"/>
<path d="M87.7277 50.0001L61.0587 66.4386L56.272 63.6989L82.941 47.2604L87.7277 50.0001Z" fill="#FA7616"/>
<path d="M41.2279 50.0001L13.8751 66.4386L9.08838 63.6989L36.4412 47.2604L41.2279 50.0001Z" fill="#FA7616"/>
<path d="M64.478 8.90417L37.1251 25.3425L32.3384 22.6029L59.6913 6.16443L64.478 8.90417Z" fill="#FA7616"/>
<path d="M32.3384 31.507V22.6029L37.1251 25.3427V34.2468L32.3384 31.507Z" fill="#FA7616"/>
<path d="M9.08838 73.2879V63.6989L13.8751 66.4386V76.0276L9.08838 73.2879Z" fill="#FA7616"/>
<path d="M56.272 71.9181V63.6989L61.0587 66.4386V74.6579L56.272 71.9181Z" fill="#FA7616"/>
</g>
<defs>
<clipPath id="clip0_337_21137">
<rect width="97.5" height="100" fill="white"/>
</clipPath>
</defs>
</svg>
