<svg width="95" height="100" viewBox="0 0 95 100" fill="none" xmlns="http://www.w3.org/2000/svg">
<g clip-path="url(#clip0_337_21132)">
<path d="M35.7624 91.3166C35.0139 90.5855 33.9891 90.2478 32.9556 90.3959L24.6307 91.5854C24.2356 91.6418 23.8429 91.6693 23.4561 91.6693C19.5332 91.6696 16.1149 88.8504 15.4147 84.819L13.9621 76.4541C13.7825 75.4208 13.1512 74.5414 12.2302 74.0479C12.2302 74.0479 12.2302 74.0479 12.2302 74.0479L4.80287 70.0675C0.876239 67.9631 -0.673136 63.1549 1.28156 59.1159L4.97416 51.4863C5.43077 50.5429 5.43075 49.4582 4.97417 48.5147L1.28176 40.8851C-0.67295 36.846 0.876449 32.0374 4.80305 29.9333L12.2304 25.9529C13.1512 25.4593 13.7825 24.5801 13.9621 23.5465L15.4147 15.1819C16.1837 10.7538 20.2324 7.78673 24.6305 8.4154L32.9556 9.60485C33.989 9.75178 35.0134 9.41578 35.7622 8.68409L41.8055 2.77888C45.0001 -0.343023 49.9999 -0.342878 53.1947 2.77888L59.2377 8.6835C59.9862 9.41488 61.0104 9.75169 62.0442 9.60428L70.3695 8.41483C74.7661 7.78651 78.8162 10.7533 79.5853 15.1813L81.0379 23.5463C81.2175 24.5796 81.8487 25.4591 82.7697 25.9525L90.1971 29.9329C94.1237 32.0373 95.6731 36.8455 93.7184 40.8845L90.0259 48.5143C89.5692 49.4578 89.5692 50.5423 90.0259 51.4859L93.7184 59.1156C95.6731 63.1548 94.1237 67.9634 90.1971 70.0675L82.7697 74.0479C81.849 74.5415 81.2177 75.4206 81.0381 76.4543L79.5853 84.8189C78.8162 89.247 74.7682 92.2139 70.3695 91.5854L62.0444 90.3959C61.0114 90.2494 59.9866 90.5851 59.2377 91.3166L53.1945 97.2213C51.5961 98.7834 49.5467 99.5624 47.5 99.5625C45.4526 99.5626 43.4047 98.7839 41.8055 97.2213L35.7624 91.3166ZM71.0455 86.7406C72.852 86.9981 74.5098 85.7771 74.8232 83.9719L76.2757 75.6071C76.7161 73.0715 78.2582 70.9293 80.5066 69.724L87.934 65.7436C89.5421 64.8819 90.1726 62.9135 89.3757 61.2668L85.6831 53.6371C84.5641 51.3249 84.5641 48.6748 85.6831 46.3625L89.3757 38.7329C90.1725 37.0865 89.5419 35.1183 87.9337 34.2565L80.5065 30.2761C78.2579 29.0713 76.7159 26.9289 76.2754 24.3933L74.8229 16.0283C74.5094 14.2231 72.8505 13.0015 71.0451 13.2595L62.72 14.4489C60.201 14.8091 57.7089 13.9916 55.8786 12.2033L49.8355 6.2987C48.527 5.0206 46.4721 5.02046 45.1639 6.29869L39.1206 12.2033C37.2904 13.9915 34.798 14.8091 32.2792 14.4489L23.9541 13.2595C22.1475 13.0018 20.49 14.2231 20.1764 16.0283L18.7237 24.393C18.2835 26.9288 16.7414 29.0709 14.493 30.2761L7.06562 34.2565C5.4576 35.1183 4.82691 37.0865 5.62367 38.7329L9.31626 46.3626C10.4352 48.6751 10.4352 51.3249 9.31627 53.6373L5.62367 61.2671C4.82691 62.9135 5.4576 64.8818 7.0656 65.7434L14.493 69.7239C16.7415 70.9286 18.2835 73.071 18.724 75.6068L20.1767 83.9717C20.4905 85.7769 22.1492 86.9983 23.9545 86.7405L32.2796 85.551C32.6701 85.4951 33.0601 85.4678 33.4466 85.4678C35.5541 85.4678 37.5736 86.2848 39.121 87.7966L45.164 93.7012C46.4725 94.9792 48.5275 94.9795 49.8357 93.7012L55.8789 87.7969C57.7092 86.0086 60.2007 85.1908 62.7202 85.5513L71.0455 86.7406Z" fill="#114335"/>
<path d="M35.4567 91.6296L35.7624 91.3166M35.7624 91.3166C35.0139 90.5855 33.9891 90.2478 32.9556 90.3959L24.6307 91.5854C24.2356 91.6418 23.8429 91.6693 23.4561 91.6693C19.5332 91.6696 16.1149 88.8504 15.4147 84.819L13.9621 76.4541C13.7825 75.4208 13.1512 74.5414 12.2302 74.0479M35.7624 91.3166L41.8055 97.2213C43.4047 98.7839 45.4526 99.5626 47.5 99.5625C49.5467 99.5624 51.5961 98.7834 53.1945 97.2213M12.2302 74.0479C12.2302 74.0479 12.2302 74.0479 12.2302 74.0479ZM12.2302 74.0479L4.80287 70.0675C0.876239 67.9631 -0.673136 63.1549 1.28156 59.1159L4.97416 51.4863C5.43077 50.5429 5.43075 49.4582 4.97417 48.5147M4.97417 48.5147L4.58036 48.7053M4.97417 48.5147L1.28176 40.8851C-0.67295 36.846 0.876449 32.0374 4.80305 29.9333L12.2304 25.9529C13.1512 25.4593 13.7825 24.5801 13.9621 23.5465L15.4147 15.1819C16.1837 10.7538 20.2324 7.78673 24.6305 8.4154L32.9556 9.60485C33.989 9.75178 35.0134 9.41578 35.7622 8.68409M35.7622 8.68409L35.4742 8.38928M35.7622 8.68409L41.8055 2.77888M41.8055 2.77888L41.5327 2.49973M41.8055 2.77888C45.0001 -0.343023 49.9999 -0.342878 53.1947 2.77888M53.1947 2.77888L53.5005 2.46596M53.1947 2.77888L59.2377 8.6835C59.9862 9.41488 61.0104 9.75169 62.0442 9.60428L70.3695 8.41483M70.3695 8.41483L70.3076 7.98173M70.3695 8.41483C74.7661 7.78651 78.8162 10.7533 79.5852 15.1813L81.0379 23.5463C81.2175 24.5796 81.8487 25.4591 82.7697 25.9525L90.1971 29.9329C94.1237 32.0373 95.6731 36.8455 93.7184 40.8845L90.0259 48.5143C89.5692 49.4578 89.5692 50.5423 90.0259 51.4859M90.0259 51.4859L90.4189 51.2956M90.0259 51.4859L93.7184 59.1156C95.6731 63.1548 94.1237 67.9634 90.1971 70.0675M90.1971 70.0675L90.3777 70.4044M90.1971 70.0675L82.7697 74.0479M82.7697 74.0479L82.9724 74.4259M82.7697 74.0479C81.849 74.5415 81.2177 75.4206 81.0381 76.4543M81.0381 76.4543L81.4559 76.5269M81.0381 76.4543L79.5852 84.8189C78.8162 89.247 74.7682 92.2139 70.3695 91.5854L62.0444 90.3959C61.0114 90.2494 59.9866 90.5851 59.2377 91.3166M59.2377 91.3166L59.5346 91.6205M59.2377 91.3166L53.1945 97.2213M53.1945 97.2213L53.4902 97.524M89.3757 61.2668C90.1726 62.9135 89.5421 64.8819 87.934 65.7436L80.5066 69.724C78.2582 70.9293 76.7161 73.0715 76.2757 75.6071L74.8232 83.9719C74.5097 85.7771 72.852 86.9981 71.0455 86.7406L62.7202 85.5513C60.2007 85.1908 57.7092 86.0086 55.8789 87.7969L49.8357 93.7013C48.5275 94.9795 46.4725 94.9793 45.164 93.7013L39.121 87.7966C37.5736 86.2847 35.5541 85.4678 33.4466 85.4678C33.0601 85.4678 32.6701 85.4951 32.2796 85.551M89.3757 61.2668L88.9819 61.4572M89.3757 61.2668L85.6831 53.6371C84.5641 51.3249 84.5641 48.6748 85.6831 46.3625L89.3757 38.7329M89.3757 38.7329L89.0052 38.5536M89.3757 38.7329C90.1725 37.0865 89.5419 35.1183 87.9337 34.2565L80.5065 30.2761M80.5065 30.2761L80.2997 30.6618M80.5065 30.2761C78.2579 29.0713 76.7159 26.9289 76.2754 24.3933L74.8229 16.0283C74.5094 14.2231 72.8505 13.0015 71.0451 13.2595L62.72 14.4489C60.201 14.8091 57.7089 13.9916 55.8786 12.2033L49.8355 6.2987C48.527 5.0206 46.4721 5.02046 45.1639 6.29869L39.1206 12.2033C37.2904 13.9915 34.798 14.8091 32.2792 14.4489L23.9541 13.2595C22.1475 13.0018 20.49 14.2231 20.1764 16.0283L18.7237 24.393C18.2835 26.9288 16.7414 29.0709 14.493 30.2761L7.06562 34.2565C5.4576 35.1183 4.82691 37.0865 5.62367 38.7329M5.62367 38.7329L6.01361 38.5441M5.62367 38.7329L9.31626 46.3626C10.4352 48.6751 10.4352 51.3249 9.31627 53.6373L5.62367 61.2671M5.62367 61.2671L5.94957 61.4248M5.62367 61.2671C4.82691 62.9135 5.4576 64.8818 7.0656 65.7434L14.493 69.7239M14.493 69.7239L14.6996 69.3383M14.493 69.7239C16.7415 70.9286 18.2835 73.071 18.724 75.6068L20.1767 83.9718M20.1767 83.9718L20.6056 83.8972M20.1767 83.9718C20.4905 85.7769 22.1492 86.9983 23.9545 86.7405M23.9545 86.7405L23.8926 86.3074M23.9545 86.7405L32.2796 85.551M32.2796 85.551L32.2184 85.1219" stroke="white" stroke-width="0.7"/>
<path d="M68.3614 28.929C67.2466 27.8028 65.4386 27.8028 64.3236 28.929L26.638 66.993C25.523 68.1192 25.523 69.9452 26.638 71.0713C27.1955 71.6344 27.9261 71.916 28.6568 71.916C29.3873 71.916 30.1183 71.6345 30.6755 71.0713L68.3613 33.0074C69.4766 31.8812 69.4766 30.0553 68.3614 28.929Z" fill="#FA7616"/>
<path d="M36.0792 24.0461C30.3067 24.0461 25.6104 28.7896 25.6104 34.62C25.6104 40.4504 30.3067 45.1939 36.0792 45.1939C41.8517 45.1939 46.5481 40.4504 46.5481 34.62C46.5481 28.7896 41.8517 24.0461 36.0792 24.0461ZM36.0792 39.4263C33.4554 39.4263 31.3207 37.2701 31.3207 34.6198C31.3207 31.9696 33.4554 29.8136 36.0792 29.8136C38.7031 29.8136 40.8379 31.9696 40.8379 34.6198C40.8377 37.2701 38.7031 39.4263 36.0792 39.4263Z" fill="#FA7616"/>
<path d="M58.92 54.8064C53.1475 54.8064 48.4512 59.5499 48.4512 65.3803C48.4512 71.2106 53.1475 75.9541 58.92 75.9541C64.6925 75.9541 69.3889 71.2106 69.3889 65.3803C69.3889 59.5499 64.6925 54.8064 58.92 54.8064ZM58.92 70.1865C56.2962 70.1865 54.1614 68.0304 54.1614 65.3803C54.1614 62.7301 56.296 60.5741 58.92 60.5741C61.5439 60.5741 63.6785 62.7301 63.6785 65.3803C63.6785 68.0304 61.5439 70.1865 58.92 70.1865Z" fill="#FA7616"/>
</g>
<defs>
<clipPath id="clip0_337_21132">
<rect width="95" height="100" fill="white"/>
</clipPath>
</defs>
</svg>
