<svg width="114" height="145" viewBox="0 0 114 145" fill="none" xmlns="http://www.w3.org/2000/svg">
<g clip-path="url(#clip0_337_21162)">
<path d="M111.162 16.1709H97.1996V21.835H108.324V139.336H22.4767V128.829H16.8008V142.168C16.8008 143.726 18.0778 145 19.6386 145H111.162C112.723 145 114 143.726 114 142.168V19.003C114 17.4453 112.723 16.1709 111.162 16.1709Z" fill="#114335"/>
<path d="M94.3615 0H2.83794C1.27707 0 0 1.27441 0 2.83203V125.997C0 127.555 1.27707 128.829 2.83794 128.829H16.8006H22.4764H94.3615C95.9224 128.829 97.1993 127.555 97.1993 125.997V21.835V16.1709V2.83203C97.1993 1.27441 95.9224 0 94.3615 0ZM91.5236 21.835V123.137H22.4764H16.8006H5.67588V5.66406H91.5236V16.1709V21.835Z" fill="#114335"/>
<path d="M76.9367 27.4706H56.8723C55.3114 27.4706 54.0344 26.1962 54.0344 24.6385C54.0344 23.0809 55.3114 21.8065 56.8723 21.8065H76.9367C78.4974 21.8065 79.7745 23.0809 79.7745 24.6385C79.7745 26.2245 78.4974 27.4706 76.9367 27.4706Z" fill="#114335"/>
<path d="M76.9367 44.6327H56.8723C55.3114 44.6327 54.0344 43.3583 54.0344 41.8007C54.0344 40.2432 55.3114 38.9686 56.8723 38.9686H76.9367C78.4974 38.9686 79.7745 40.2432 79.7745 41.8007C79.7745 43.3583 78.4974 44.6327 76.9367 44.6327Z" fill="#114335"/>
<path d="M76.9367 61.7666H56.8723C55.3114 61.7666 54.0344 60.4922 54.0344 58.9346C54.0344 57.3769 55.3114 56.1025 56.8723 56.1025H76.9367C78.4974 56.1025 79.7745 57.3769 79.7745 58.9346C79.7745 60.4922 78.4974 61.7666 76.9367 61.7666Z" fill="#114335"/>
<path d="M76.9363 78.9003H20.2627C18.7018 78.9003 17.4248 77.6259 17.4248 76.0684C17.4248 74.5108 18.7018 73.2362 20.2627 73.2362H76.9363C78.4972 73.2362 79.7744 74.5108 79.7744 76.0684C79.7744 77.6259 78.4972 78.9003 76.9363 78.9003Z" fill="#114335"/>
<path d="M76.9365 96.0341C75.3756 96.0341 74.0986 94.7597 74.0986 93.202C74.0986 91.6444 75.3756 90.37 76.9365 90.37C78.4974 90.37 79.7746 91.6444 79.7746 93.202C79.7746 94.788 78.4974 96.0341 76.9365 96.0341Z" fill="#114335"/>
<path d="M66.9185 96.0341H20.2627C18.7018 96.0341 17.4248 94.7597 17.4248 93.202C17.4248 91.6444 18.7018 90.37 20.2627 90.37H66.9185C68.4794 90.37 69.7564 91.6444 69.7564 93.202C69.7564 94.788 68.4794 96.0341 66.9185 96.0341Z" fill="#114335"/>
<path d="M46.003 34.6358C46.003 26.7626 39.6177 20.3906 31.7282 20.3906C23.8387 20.3906 17.4534 26.7626 17.4534 34.6358C17.4534 37.8359 18.5035 40.7812 20.2913 43.1602V64.2305C20.2913 64.2587 20.2913 64.2872 20.2913 64.3155C20.2629 65.0802 20.5466 65.8164 21.1143 66.4111C22.2212 67.5156 24.0089 67.5156 25.1158 66.4111L31.7282 59.8125L38.3406 66.4111C39.4475 67.5156 41.2353 67.5156 42.3422 66.4111C42.9096 65.8447 43.1935 65.0802 43.1652 64.3155C43.1652 64.2872 43.1652 64.2587 43.1652 64.2305V43.1602C44.9529 40.7812 46.003 37.8359 46.003 34.6358ZM31.7282 26.7344C36.0986 26.7344 39.6461 30.2744 39.6461 34.6358C39.6461 38.997 36.0986 42.537 31.7282 42.537C27.3578 42.537 23.8104 38.997 23.8104 34.6358C23.8104 30.2744 27.3578 26.7344 31.7282 26.7344ZM33.7148 53.8369C32.608 52.7325 30.8201 52.7325 29.7134 53.8369L25.9388 57.6034V47.6914C27.6983 48.4844 29.6565 48.9092 31.7282 48.9092C33.7999 48.9092 35.7296 48.4844 37.5176 47.6914V57.6034L33.7148 53.8369Z" fill="#FA7616"/>
</g>
<defs>
<clipPath id="clip0_337_21162">
<rect width="114" height="145" fill="white"/>
</clipPath>
</defs>
</svg>
