<svg width="100" height="100" viewBox="0 0 100 100" fill="none" xmlns="http://www.w3.org/2000/svg">
<g clip-path="url(#clip0_337_21172)">
<path d="M92.4345 59.8354C91.6145 58.8605 90.814 57.9339 90.0429 56.9783C89.955 56.872 89.955 56.65 89.9842 56.4859C90.5211 53.4358 90.775 50.3662 90.5505 47.2677C90.4529 45.9839 90.3455 44.7002 90.1405 43.4357C90.0429 42.8564 89.7598 42.2773 89.4376 41.7657C88.9789 41.0418 88.2076 40.8004 87.3975 40.9163C86.4994 41.0418 85.6209 41.2638 84.7422 41.4665C83.7466 41.6982 82.7803 42.007 81.7747 42.1904C81.0134 42.3255 80.4179 41.9588 79.92 41.3699C79.0318 40.3178 77.8018 39.9703 76.4741 39.9993C75.703 40.0185 75.2246 40.9355 75.5468 41.6692C75.7714 42.1712 76.0641 42.6442 76.2399 43.1557C76.4156 43.6673 76.5718 44.2078 76.6109 44.7387C76.6986 45.8584 76.0838 46.6693 75.1564 47.1615C73.0381 48.2909 70.5586 47.9627 68.7331 46.4183C68.6844 46.3797 68.6258 46.3604 68.5673 46.3314C68.1378 48.0495 69.3091 50.2793 71.1053 51.0805C72.0034 51.4859 72.9503 51.7852 73.8678 52.1615C74.7171 52.509 75.2638 53.1172 75.4296 54.0824C73.9361 54.0824 72.4719 54.0149 71.0174 54.1018C69.9436 54.1693 69.27 53.8798 68.5868 52.982C66.7614 50.5689 64.1453 49.5747 61.1581 49.4589C59.7134 49.4105 58.2589 49.4203 56.8143 49.4492C55.428 49.4685 54.2664 50.0284 53.3098 51.0515C52.3434 50.3565 51.3086 49.8257 50.1373 49.6229C49.5028 49.5168 48.8486 49.4589 48.2044 49.4492C45.5688 49.4299 42.9331 49.4395 40.2975 49.4395C40.1901 49.4395 40.073 49.4395 39.907 49.4395C39.907 48.87 39.8973 48.3295 39.907 47.7889C39.9851 44.5747 38.6868 42.0939 35.895 40.4143C35.8656 40.395 35.8559 40.366 35.8071 40.3082C36.8126 39.2947 37.9546 38.4742 39.253 37.8564C42.162 36.476 45.2174 36.3892 48.3118 36.949C49.8834 37.2387 51.4258 37.7309 52.9876 38.0784C53.9833 38.3004 54.9888 38.4838 56.004 38.5803C57.3804 38.7155 58.7665 38.8217 60.1429 38.7927C62.3588 38.7444 62.5834 38.1267 62.0953 36.1285C61.8415 35.0764 61.0118 34.5263 60.0355 34.1788C58.8641 33.754 57.6341 33.6093 56.3945 33.6093C53.9053 33.6093 51.416 33.6962 48.9268 33.6768C48.1556 33.6672 47.3746 33.5224 46.6328 33.31C44.9343 32.808 44.1631 31.447 44.6024 29.7578C44.9733 28.3195 45.6956 27.0744 47.1599 26.4855C48.2141 26.0705 48.5656 25.279 48.6925 24.2848C48.7511 23.8408 48.7609 23.3872 48.8291 22.943C49.1123 21.1573 50.3325 20.192 51.9236 19.6129C53.8661 18.9083 55.8869 18.7924 57.927 18.8987C58.747 18.9469 58.913 18.7924 58.7957 17.9623C58.6786 17.1033 58.4444 16.2634 58.337 15.4044C58.132 13.7248 58.6689 12.2383 59.6549 10.8869C59.7426 10.7711 59.8208 10.6553 59.9476 10.4815C56.0235 9.51627 52.0994 9.1205 48.0873 9.3039C48.0873 10.1244 48.1068 10.9159 48.0873 11.6978C48.0483 13.136 47.7846 14.5163 46.6328 15.5009C46.0178 16.0222 45.2661 16.4083 44.534 16.775C43.1966 17.4508 41.8105 18.0492 40.4731 18.7249C40.0339 18.9469 39.6533 19.2944 39.253 19.6033C38.9504 19.8349 38.7844 20.1149 38.804 20.5395C38.8235 21.2153 38.2573 21.8234 37.574 21.9778C36.9395 22.1129 36.2269 21.8137 35.9048 21.2442C35.3581 20.2597 35.5338 19.3137 36.139 18.4257C36.9688 17.2287 38.1304 16.3889 39.3994 15.7325C40.5806 15.1244 41.8105 14.6129 43.021 14.0723C43.1966 13.995 43.3821 13.9179 43.5579 13.8503C44.4266 13.5318 44.9245 12.9429 44.9343 12.0066C44.944 11.2248 44.9343 10.4429 44.9343 9.59348C38.7746 10.3753 33.152 12.4314 28.0174 15.7037C29.0033 18.0299 29.3546 20.443 29.3156 22.8948C29.2766 25.1149 28.1833 26.8717 26.3285 28.0879C25.2158 28.8215 23.9858 29.3814 22.8144 30.0282C22.7851 29.9895 22.746 29.9509 22.7168 29.9123C22.9999 29.4972 23.2731 29.0822 23.566 28.6768C24.3176 27.6535 25.0108 26.611 25.0595 25.2887C25.0595 25.1922 25.1474 25.0859 25.2158 25.0088C26.0845 24.14 26.3383 23.0493 26.2016 21.9005C26.0455 20.5975 25.7819 19.304 25.5574 18.0105C25.5379 17.8754 25.4695 17.7403 25.3914 17.5087C24.2884 18.4547 23.2244 19.3427 22.1896 20.2693C21.887 20.5395 21.6528 20.6747 21.2135 20.5782C20.6961 20.4624 20.1591 20.472 19.5735 20.4238C19.5735 19.806 19.554 19.1882 19.5833 18.5608C19.593 18.4257 19.7296 18.2809 19.8468 18.1843C24.1029 14.1785 28.9544 11.1089 34.4405 9.02398C38.3744 7.52782 42.445 6.61082 46.6523 6.30194C53.8661 5.77104 60.8165 6.87144 67.4446 9.74793C76.2789 13.5897 83.1316 19.6708 87.9831 27.9142C90.6384 32.4219 92.3661 37.2773 93.2154 42.4318C93.8304 46.1867 93.9866 49.9512 93.5669 53.7253C93.3521 55.6558 92.9323 57.5574 92.6004 59.4687C92.5419 59.5844 92.493 59.681 92.4345 59.8354Z" fill="#114335"/>
<path d="M67.4154 58.3006C68.6746 58.3006 69.9436 58.3006 71.2128 58.3006C75.3321 58.3006 79.4418 58.291 83.5613 58.3102C85.2109 58.32 86.6264 58.9474 87.6806 60.1925C91.3021 64.4494 94.8848 68.7351 98.4673 73.0305C99.4825 74.2467 99.9803 75.685 99.9803 77.268C99.99 82.1234 99.9413 86.9882 99.9999 91.8435C100.019 93.8609 98.4086 95.5019 96.3783 95.3957C95.1678 95.3281 93.9379 95.386 92.7371 95.386C92.825 94.3629 92.9129 93.3686 93.0008 92.2972C93.8305 92.2972 94.7188 92.2972 95.6071 92.2972C96.8468 92.2972 96.8468 92.2972 96.8468 91.081C96.8468 86.5635 96.837 82.0365 96.8468 77.519C96.8468 76.4572 96.4954 75.5402 95.8219 74.7294C92.3466 70.5884 88.8813 66.4475 85.4159 62.3257C84.9279 61.737 84.2738 61.3991 83.5124 61.3991C78.407 61.3895 73.2919 61.3895 68.1866 61.3895C68.128 61.3895 68.0598 61.3991 67.9816 61.4184C67.9816 71.6889 67.9816 81.9496 67.9816 92.2682C69.5338 92.2682 71.0858 92.2682 72.5891 92.2682C72.677 93.33 72.7648 94.3339 72.8526 95.3474C62.8373 95.3474 52.7828 95.3474 42.7673 95.3474C42.8551 94.3339 42.943 93.33 43.0308 92.2875C50.2544 92.2875 57.5171 92.2875 64.8189 92.2875C64.8189 86.6215 64.8189 80.994 64.8189 75.2892C64.6431 75.2892 64.4479 75.2892 64.2624 75.2892C59.1375 75.2892 54.0126 75.2892 48.8878 75.2892C38.9211 75.2892 28.9448 75.2892 18.9781 75.2892C13.209 75.2892 7.43006 75.2892 1.66093 75.2892C0.87999 75.2796 0.343099 74.9127 0.0990573 74.2564C-0.125461 73.6386 0.0307258 72.963 0.577379 72.5672C0.850705 72.3741 1.22165 72.2101 1.55354 72.2101C6.6296 72.1907 11.7057 72.2004 16.7818 72.2004C18.5681 72.2004 20.3545 72.1907 22.1409 72.1907C36.1294 72.1907 50.1275 72.1907 64.116 72.2004C64.3308 72.2004 64.5358 72.2004 64.8384 72.2004C64.8384 71.9784 64.8384 71.7757 64.8384 71.5826C64.8384 68.2815 64.8676 64.9899 64.7993 61.6887C64.7798 60.791 64.5943 59.8644 64.3015 59.0052C63.7841 57.4995 62.5931 56.7949 61.002 56.7562C59.6646 56.7272 58.3371 56.7465 56.9998 56.7465C55.9064 56.7465 55.2329 56.1481 55.2426 55.1925C55.2524 54.2561 55.926 53.6674 56.9803 53.6674C58.1809 53.6674 59.3914 53.6674 60.592 53.6674C63.9208 53.6674 66.0488 55.0766 67.308 58.1076C67.3374 58.1655 67.3666 58.2137 67.4154 58.3006Z" fill="#114335"/>
<path d="M4.57966 26.6593C6.72722 29.7577 8.82598 32.7887 10.9735 35.8873C13.1015 32.8176 15.2102 29.7771 17.3772 26.6593C16.5377 26.6593 15.786 26.6593 15.0344 26.6593C13.9215 26.6593 13.3065 26.0609 13.3065 24.9701C13.3065 17.219 13.3262 9.46795 13.287 1.7169C13.2773 0.539274 14.4097 -0.368074 15.5225 0.162821C16.1863 0.471705 16.4303 1.03156 16.4303 1.7362C16.4303 4.5065 16.4303 7.26715 16.4303 10.0375C16.4303 14.3329 16.4303 18.6283 16.4303 22.9141C16.4303 23.1071 16.4303 23.3001 16.4303 23.5319C16.567 23.5415 16.6939 23.5705 16.811 23.5705C17.9337 23.5705 19.0562 23.5801 20.1788 23.5705C20.8523 23.5705 21.3893 23.7925 21.7114 24.4006C22.0433 25.0184 21.9262 25.5975 21.5259 26.1574C18.6853 30.2307 15.8544 34.3139 13.0235 38.3969C12.8088 38.7057 12.6038 39.0146 12.3987 39.3139C11.5788 40.4819 10.3488 40.4915 9.53858 39.3235C8.39647 37.6826 7.26412 36.032 6.12201 34.391C4.22825 31.6594 2.34425 28.9276 0.440722 26.196C0.0404938 25.6265 -0.125454 25.0376 0.225965 24.3909C0.577385 23.7442 1.15332 23.5415 1.85616 23.5511C3.04708 23.5705 4.22825 23.5511 5.4875 23.5511C5.4875 23.3388 5.4875 23.1554 5.4875 22.972C5.4875 15.9739 5.4875 8.97567 5.4875 1.97751C5.4875 1.68794 5.47773 1.3887 5.54607 1.11843C5.73153 0.394484 6.46366 -0.0688424 7.21531 0.00837863C7.96696 0.0855996 8.5429 0.684062 8.61122 1.44662C8.62098 1.5721 8.62098 1.70724 8.62098 1.83272C8.62098 9.21699 8.62098 16.6012 8.62098 23.9855C8.62098 24.3426 8.63075 24.6901 8.62098 25.0472C8.60146 26.0029 7.9572 26.6496 6.9908 26.6496C6.21962 26.6593 5.43868 26.6593 4.57966 26.6593Z" fill="#FA7616"/>
<path d="M51.6016 0.0180755C62.6712 0.500707 72.4622 3.9853 81.0232 10.7035C89.3011 17.1997 94.9434 25.4817 97.9792 35.4915C98.9456 38.6865 99.5704 41.9491 99.8144 45.2696C99.912 46.6306 99.9706 48.0013 99.9608 49.3623C99.9608 50.3468 99.3165 50.984 98.5161 50.9647C97.4618 50.9357 96.8859 50.3468 96.8761 49.2851C96.8469 43.6673 95.8511 38.2328 93.8207 32.9915C91.312 26.4952 87.5147 20.8292 82.4289 16.0221C75.9276 9.88307 68.2745 5.87722 59.4597 4.05288C56.375 3.4158 53.2611 3.11657 50.1177 3.09727C49.1319 3.08762 48.4486 2.44089 48.4584 1.53354C48.4681 0.655149 49.1514 0.0180755 50.108 0.00842285C50.6645 0.00842285 51.2209 0.0180755 51.6016 0.0180755Z" fill="#114335"/>
<path d="M83.1022 80.6947C80.9058 80.6947 78.7094 80.6947 76.5131 80.6947C74.9512 80.6947 73.7018 79.6329 73.5163 78.0981C73.4382 77.4129 73.4187 76.7275 73.4187 76.0421C73.4089 74.0151 73.4089 71.988 73.4187 69.961C73.4284 68.4455 74.4241 67.181 75.8396 66.8529C76.0251 66.8142 76.2203 66.7949 76.4154 66.7949C77.7333 66.7949 79.0512 66.8142 80.3689 66.7852C81.8234 66.766 82.9753 67.3644 83.9222 68.3972C86.4114 71.1386 88.8812 73.8896 91.3606 76.631C91.7901 77.1039 92.0732 77.6251 92.1416 78.2526C92.2879 79.604 91.2923 80.685 89.8768 80.685C87.6219 80.6947 85.3669 80.6947 83.1022 80.6947Z" fill="#114335"/>
<path d="M82.7706 100C78.8366 99.9904 75.752 96.8821 75.7617 92.9342C75.7715 89.1504 78.9537 86.0905 82.8584 86.1001C86.7436 86.1099 89.8282 89.2372 89.8185 93.1659C89.8087 96.9207 86.6265 100 82.7706 100Z" fill="#114335"/>
<path d="M32.8495 86.1001C36.7346 86.1001 39.8486 89.218 39.8389 93.0886C39.8389 96.9304 36.6858 100.01 32.7714 100C28.8863 99.9904 25.7723 96.8821 25.782 93.0115C25.7918 89.1698 28.935 86.0905 32.8495 86.1001Z" fill="#114335"/>
<path d="M22.5997 92.3068C22.6875 93.3204 22.7655 94.3146 22.8534 95.3378C22.7949 95.3474 22.668 95.3668 22.5508 95.3668C19.4564 95.3668 16.3717 95.3668 13.2773 95.3668C12.5744 95.3668 12.0278 94.9613 11.7935 94.3243C11.5787 93.7162 11.7447 93.0404 12.2913 92.6447C12.5354 92.4613 12.877 92.3068 13.1797 92.3068C16.274 92.2876 19.3588 92.2876 22.4532 92.2972C22.5215 92.2779 22.5802 92.2972 22.5997 92.3068Z" fill="#114335"/>
<path d="M42.9626 83.0114C41.9572 83.0114 40.942 83.0114 39.9365 83.0114C38.9798 83.0114 38.2868 82.3646 38.277 81.4959C38.2672 80.5789 38.9506 79.9321 39.9365 79.9321C41.9572 79.9321 43.9681 79.9321 45.9887 79.9321C46.9453 79.9321 47.6385 80.5692 47.6482 81.4476C47.658 82.355 46.9746 83.0114 45.9887 83.0114C44.9832 83.0114 43.9681 83.0114 42.9626 83.0114Z" fill="#114335"/>
<path d="M15.6006 83.0114C14.5952 83.0114 13.5897 83.021 12.5746 83.0114C11.5788 83.0016 10.9443 82.3646 10.9443 81.3607C10.9443 80.5789 11.696 79.9225 12.5941 79.9225C14.605 79.9225 16.6256 79.9225 18.6365 79.9225C19.6225 79.9225 20.3155 80.5692 20.3057 81.4765C20.3057 82.3742 19.6127 83.0114 18.617 83.0114C18.5877 83.0114 18.5487 83.0114 18.5193 83.0114C17.553 83.0114 16.5768 83.0114 15.6006 83.0114Z" fill="#114335"/>
<path d="M32.2831 46.5148C33.0933 46.5148 33.7473 47.1615 33.7473 47.9626V66.1869H11.5591V47.9626C11.5591 47.1615 12.2131 46.5148 13.0233 46.5148H32.2831ZM32.2831 43.619H13.0233C10.5927 43.619 8.63062 45.5591 8.63062 47.9626V69.0826H36.6758V47.9626C36.6758 45.5689 34.7138 43.619 32.2831 43.619Z" fill="#114335"/>
<path d="M35.6413 53.6674H48.7219C51.1525 53.6674 53.1147 55.6075 53.1147 58.011V69.0826H31.2485V58.011C31.2485 55.6075 33.2107 53.6674 35.6413 53.6674Z" fill="#FA7616"/>
<path d="M7.52775 50.5881H23.7321C26.1627 50.5881 28.1248 52.5284 28.1248 54.9319V69.0826H3.13501V54.9319C3.13501 52.538 5.0971 50.5881 7.52775 50.5881Z" fill="#FA7616"/>
</g>
<defs>
<clipPath id="clip0_337_21172">
<rect width="100" height="100" fill="white"/>
</clipPath>
</defs>
</svg>
