<svg width="100" height="59" viewBox="0 0 100 59" fill="none" xmlns="http://www.w3.org/2000/svg">
<g clip-path="url(#clip0_337_21147)">
<path d="M84.73 36.4582C83.9429 36.4582 83.1556 36.4582 82.38 36.4582C81.5811 36.4582 80.7708 36.4582 79.972 36.4582H77.9114C75.9896 36.4582 74.0795 36.4582 72.1578 36.4582C69.4256 36.4582 67.2029 34.5003 66.8788 31.8126C66.763 30.8858 66.7514 29.9822 66.7514 29.1481C66.7398 26.8195 66.7398 24.4213 66.7514 21.8378C66.763 19.2196 68.4995 16.9953 70.9769 16.4276C71.301 16.3581 71.6484 16.3118 72.042 16.3118C72.6208 16.3118 73.2113 16.3118 73.79 16.3118C74.7509 16.3118 75.7349 16.3233 76.7074 16.3002C78.8491 16.2655 80.7129 17.1112 82.241 18.8142C83.7576 20.5056 85.2858 22.2202 86.7675 23.8885C88.1684 25.464 89.627 27.0975 91.0625 28.6962C91.8498 29.5767 92.3129 30.5615 92.4286 31.6157C92.5675 32.8785 92.197 34.0833 91.3751 34.9986C90.5416 35.937 89.3491 36.4582 88.0179 36.4582C86.9296 36.4582 85.8183 36.4582 84.73 36.4582ZM80.0184 32.9827C80.8055 32.9827 81.5928 32.9827 82.38 32.9827C84.2206 32.9827 86.1309 32.9827 87.9948 32.9827C88.3189 32.9827 88.5966 32.8785 88.7704 32.6815C88.9209 32.5077 88.9903 32.2645 88.9671 31.9865C88.944 31.7778 88.863 31.4535 88.4694 31.0132C87.0339 29.4146 85.5751 27.7811 84.1628 26.1938C82.681 24.5372 81.1529 22.811 79.6363 21.1312C78.7913 20.1812 77.865 19.7526 76.7421 19.7757C75.7465 19.7873 74.7278 19.7873 73.7553 19.7873C73.1765 19.7873 72.6093 19.7873 72.0304 19.7873C71.8568 19.7873 71.7641 19.7988 71.7294 19.8105C70.8264 20.019 70.2129 20.8416 70.2013 21.8495C70.1896 24.4213 70.1896 26.8078 70.2013 29.1248C70.2013 29.8663 70.2129 30.6541 70.3055 31.3956C70.4213 32.3571 71.139 32.9827 72.1346 32.9827C74.0563 32.9827 75.9665 32.9827 77.8883 32.9827H79.9489C79.9836 32.9827 80.0068 32.9827 80.0184 32.9827Z" fill="#114335"/>
<path d="M99.9765 30.5963C99.9765 28.6963 99.3862 26.9701 98.1822 25.5104C93.9335 20.355 89.6848 15.2113 85.3899 10.1022C84.1395 8.61929 82.4609 7.85467 80.5045 7.84309C75.6192 7.81992 70.7453 7.83151 65.8599 7.83151C64.3549 7.83151 62.85 7.83151 61.3565 7.83151H58.254C58.254 7.83151 58.2309 10.8205 58.254 11.8979C58.3235 15.86 58.2888 29.9823 58.3003 33.9443C58.3003 34.1876 58.3003 34.4193 58.3003 34.6858C57.9414 34.6858 57.6983 34.6858 57.4437 34.6858C40.8542 34.6858 44.6745 34.6858 28.0735 34.6741C25.9549 34.6741 23.8364 34.6858 21.7179 34.6858C15.6979 34.6858 9.67807 34.6741 3.65817 34.6974C3.56556 34.6974 3.46137 34.7089 3.36876 34.7321C2.96357 34.79 2.60468 34.987 2.35 35.265C1.96797 35.6241 1.79432 36.1108 1.82905 36.6089C1.82905 36.632 1.82905 36.6668 1.82905 36.69C1.82905 39.0765 1.82905 47.9854 1.82905 50.3835C1.82905 51.264 2.37316 52.0286 3.09091 52.2604C3.09091 52.2719 3.09091 52.2835 3.09091 52.2951C3.12565 52.2951 3.17195 52.2951 3.20668 52.2951C3.32245 52.3183 3.43821 52.3414 3.55398 52.3414C3.71606 52.3414 3.86656 52.3299 4.01705 52.2951C5.57991 52.2951 7.74476 52.2951 10.3958 52.2951C11.2988 55.9328 14.5403 58.609 18.4417 58.609H18.4533C22.3893 58.609 25.6772 55.9328 26.5685 52.2951C29.4512 52.2951 32.4727 52.2951 35.5752 52.2951C36.4782 55.9328 39.7197 58.609 43.621 58.609H43.6327C47.5687 58.609 50.8565 55.9328 51.7479 52.2951C58.6245 52.2951 65.42 52.2951 71.5209 52.2951C72.4355 55.956 75.6423 58.5974 79.5668 58.609C79.5784 58.609 79.5784 58.609 79.5899 58.609C83.5029 58.609 86.8138 55.898 87.6937 52.2951C89.0829 52.2951 90.3215 52.2951 91.3867 52.2951C91.3867 52.3066 91.3867 52.3066 91.3867 52.3183C92.0697 52.3183 92.7527 52.3066 93.4357 52.2951C93.644 52.2951 93.8293 52.2951 94.0145 52.2951C94.5818 52.2951 95.1376 52.3066 95.7048 52.3299C98.1243 52.4573 100.023 50.4994 99.9997 48.0665C99.9303 42.2508 99.9882 36.4235 99.9765 30.5963ZM22.9103 52.3066C22.6672 52.828 22.343 53.3145 21.9147 53.7316C21.0002 54.6469 19.7614 55.145 18.4417 55.145H18.43C17.1335 55.145 15.9179 54.6353 15.0149 53.72C14.6098 53.303 14.274 52.828 14.0425 52.3066C13.753 51.6695 13.6025 50.9744 13.6025 50.2445C13.6025 49.6884 13.6952 49.1439 13.8804 48.6341C14.1235 47.9623 14.5055 47.3483 15.0265 46.8269C15.941 45.9118 17.1798 45.4135 18.4995 45.4135C19.7962 45.4135 21.0002 45.9233 21.9147 46.8385C22.424 47.3483 22.806 47.9623 23.0377 48.6341C23.2228 49.1671 23.327 49.7348 23.327 50.3256C23.3387 51.0208 23.1882 51.6926 22.9103 52.3066ZM48.0897 52.3066C47.8465 52.828 47.5224 53.3145 47.094 53.7316C46.1795 54.6469 44.9408 55.145 43.621 55.145H43.6094C42.3129 55.145 41.0973 54.6353 40.1943 53.72C39.7892 53.303 39.4534 52.828 39.2219 52.3066C38.9324 51.6695 38.7819 50.9744 38.7819 50.2445C38.7819 49.6884 38.8745 49.1439 39.0598 48.6341C39.3029 47.9623 39.6849 47.3483 40.2059 46.8269C41.1204 45.9118 42.3592 45.4135 43.6789 45.4135C44.9755 45.4135 46.1795 45.9233 47.094 46.8385C47.6034 47.3483 47.9854 47.9623 48.217 48.6341C48.4023 49.1671 48.5064 49.7348 48.5064 50.3256C48.518 51.0208 48.3675 51.6926 48.0897 52.3066ZM58.2657 48.6341C56.83 48.6341 54.5958 48.6341 51.8174 48.6341C51.0533 44.8111 47.7192 41.9496 43.6905 41.938H43.6789C39.5923 41.938 36.2235 44.7995 35.471 48.6341C32.5537 48.6341 29.5669 48.6341 26.638 48.6341C25.8739 44.8111 22.5398 41.9496 18.5112 41.938H18.4995C14.4129 41.938 11.0441 44.7995 10.2916 48.6341C8.46251 48.6341 6.84177 48.6341 5.52202 48.6341C5.52202 45.9233 5.52202 41.2313 5.52202 40.3161C5.52202 39.6789 5.52202 39.0418 5.52202 38.4045C11.785 38.4045 18.048 38.4045 24.311 38.4045C36.1309 38.4045 27.5525 38.4045 39.3724 38.4045C45.4502 38.4045 51.5279 38.4045 57.6058 38.4045C57.8257 38.4045 58.0457 38.4045 58.2657 38.4045C58.2657 45.2514 58.2657 41.8221 58.2657 48.6341ZM84.0354 52.3066C83.7923 52.828 83.4565 53.3145 83.0283 53.7316C82.102 54.6469 80.8749 55.145 79.5784 55.145H79.5668C78.247 55.145 77.0315 54.6353 76.1285 53.72C75.7233 53.303 75.3992 52.828 75.1677 52.3066C74.8782 51.6463 74.7162 50.9165 74.7162 50.1519C74.7162 49.6074 74.8088 49.0976 74.9824 48.611C75.6539 46.7574 77.483 45.4135 79.6363 45.4135H79.6478C80.9328 45.4135 82.1368 45.9233 83.0283 46.8385C83.5144 47.3483 83.8849 47.9506 84.128 48.611C84.3364 49.1786 84.4405 49.7811 84.4405 50.4183C84.4522 51.0786 84.3133 51.7159 84.0354 52.3066ZM96.272 47.1629C96.272 48.6226 96.272 48.6226 94.8018 48.6226C94.4313 48.6226 94.0724 48.6226 93.7135 48.6226V48.611C93.2389 48.611 90.9352 48.611 87.7632 48.611C86.9759 44.7764 83.6997 41.9496 79.6942 41.938C79.6825 41.938 79.6825 41.938 79.671 41.938C75.5844 41.938 72.1693 44.8111 71.4283 48.611C66.5777 48.611 62.6879 48.611 62.0397 48.611C62.0397 46.3983 62.0397 34.0833 62.0397 11.5851C62.1438 11.5735 62.2133 11.5503 62.2828 11.5503C68.3374 11.5503 74.4035 11.5387 80.4582 11.5619C81.3728 11.5619 82.1368 11.9674 82.7157 12.6741C86.8254 17.6325 90.9352 22.5909 95.0449 27.5494C95.8553 28.5225 96.272 29.623 96.2604 30.8974C96.2604 36.3193 96.272 41.741 96.272 47.1629Z" fill="#114335"/>
<path d="M52.512 20.8415V28.9163H32.6231V20.8415H52.512ZM55.985 17.366H29.1501V32.3918H55.985V17.366Z" fill="#FA7616"/>
<path d="M23.3619 20.8415V28.9163H3.47301V20.8415H23.3619ZM26.8349 17.366H0V32.3918H26.8349V17.366Z" fill="#FA7616"/>
<path d="M52.512 3.47553V11.5503H32.6231V3.47553H52.512ZM55.985 0H29.1501V15.0259H55.985V0Z" fill="#FA7616"/>
<path d="M23.3619 3.47553V11.5503H3.47301V3.47553H23.3619ZM26.8349 0H0V15.0259H26.8349V0Z" fill="#FA7616"/>
<path d="M38.7126 4.71509C38.6895 4.71509 38.6663 4.71509 38.6316 4.71509C38.62 4.71509 38.6084 4.71509 38.5969 4.71509C38.5853 4.71509 38.5738 4.71509 38.5505 4.72668C38.539 4.72668 38.5274 4.73826 38.5159 4.73826C38.5043 4.73826 38.4926 4.73826 38.4811 4.74985C38.4695 4.74985 38.4579 4.76144 38.4464 4.76144C38.4348 4.76144 38.4233 4.77303 38.4116 4.77303C38.4 4.77303 38.3885 4.7846 38.3769 4.7846C38.3654 4.7846 38.3538 4.79619 38.3421 4.79619C38.3306 4.79619 38.319 4.80778 38.3074 4.81936C38.2959 4.83095 38.2843 4.83095 38.2728 4.84253C38.2611 4.85411 38.2495 4.85411 38.238 4.8657C38.2264 4.87729 38.2149 4.87729 38.2149 4.88888C38.1916 4.90045 38.1801 4.92363 38.1569 4.93521L36.5478 6.54554C36.2468 6.84675 36.2468 7.33333 36.5478 7.63454C36.6983 7.78514 36.8951 7.85465 37.0919 7.85465C37.2886 7.85465 37.4855 7.78514 37.636 7.63454L37.937 7.33333V9.5229C37.937 9.95155 38.2843 10.2991 38.7126 10.2991C39.141 10.2991 39.4883 9.95155 39.4883 9.5229V7.34491L39.7893 7.64613C39.9398 7.79673 40.1365 7.86624 40.3334 7.86624C40.5301 7.86624 40.727 7.79673 40.8775 7.64613C41.1785 7.34491 41.1785 6.85834 40.8775 6.55713L39.2683 4.9468C39.2451 4.92363 39.2336 4.91204 39.2104 4.90045C39.1989 4.88888 39.1873 4.88888 39.1873 4.87729C39.1756 4.8657 39.1641 4.8657 39.1525 4.85411C39.141 4.84253 39.1294 4.84253 39.1178 4.83095C39.1063 4.81936 39.0946 4.81936 39.0831 4.80778C39.0715 4.79619 39.0599 4.79619 39.0484 4.79619C39.0368 4.79619 39.0253 4.7846 39.0136 4.7846C39.002 4.7846 38.9905 4.77303 38.9789 4.77303C38.9673 4.77303 38.9558 4.76144 38.9441 4.76144C38.9326 4.76144 38.921 4.74985 38.9094 4.74985C38.8979 4.74985 38.8863 4.73826 38.8748 4.73826C38.8631 4.73826 38.8515 4.73826 38.8284 4.72668C38.8168 4.72668 38.8053 4.72668 38.7936 4.72668C38.7589 4.71509 38.7358 4.71509 38.7126 4.71509Z" fill="#FA7616"/>
<path d="M46.4342 4.71509C46.4111 4.71509 46.388 4.71509 46.3532 4.71509C46.3416 4.71509 46.3301 4.71509 46.3184 4.71509C46.3069 4.71509 46.2953 4.71509 46.2722 4.72668C46.2606 4.72668 46.2491 4.73826 46.2374 4.73826C46.2258 4.73826 46.2143 4.73826 46.2027 4.74985C46.1912 4.74985 46.1796 4.76144 46.1679 4.76144C46.1564 4.76144 46.1448 4.77303 46.1332 4.77303C46.1217 4.77303 46.1101 4.7846 46.0986 4.7846C46.0869 4.7846 46.0753 4.79619 46.0638 4.79619C46.0522 4.79619 46.0407 4.80778 46.0291 4.81936C46.0175 4.83095 46.0059 4.83095 45.9943 4.84253C45.9827 4.85411 45.9712 4.85411 45.9596 4.8657C45.9481 4.87729 45.9365 4.87729 45.9365 4.88888C45.9133 4.90045 45.9017 4.92363 45.8786 4.93521L44.2695 6.54554C43.9685 6.84675 43.9685 7.33333 44.2695 7.63454C44.42 7.78514 44.6167 7.85465 44.8135 7.85465C45.0103 7.85465 45.2071 7.78514 45.3576 7.63454L45.6586 7.33333V9.5229C45.6586 9.95155 46.006 10.2991 46.4342 10.2991C46.8626 10.2991 47.2099 9.95155 47.2099 9.5229V7.34491L47.5108 7.64613C47.6613 7.79673 47.8582 7.86624 48.055 7.86624C48.2518 7.86624 48.4486 7.79673 48.5991 7.64613C48.9001 7.34491 48.9001 6.85834 48.5991 6.55713L46.99 4.9468C46.9668 4.92363 46.9552 4.91204 46.9321 4.90045C46.9205 4.88888 46.9089 4.88888 46.9089 4.87729C46.8973 4.8657 46.8857 4.8657 46.8742 4.85411C46.8626 4.84253 46.851 4.84253 46.8395 4.83095C46.8278 4.81936 46.8163 4.81936 46.8047 4.80778C46.7931 4.79619 46.7816 4.79619 46.77 4.79619C46.7585 4.79619 46.7468 4.7846 46.7352 4.7846C46.7237 4.7846 46.7121 4.77303 46.7006 4.77303C46.689 4.77303 46.6773 4.76144 46.6658 4.76144C46.6542 4.76144 46.6426 4.74985 46.6311 4.74985C46.6194 4.74985 46.608 4.73826 46.5963 4.73826C46.5847 4.73826 46.5732 4.73826 46.5501 4.72668C46.5385 4.72668 46.5268 4.72668 46.5153 4.72668C46.4806 4.71509 46.4575 4.71509 46.4342 4.71509Z" fill="#FA7616"/>
<path d="M9.74767 4.71509C9.72452 4.71509 9.70137 4.71509 9.66663 4.71509C9.65506 4.71509 9.64348 4.71509 9.63191 4.71509C9.62033 4.71509 9.60876 4.71509 9.58559 4.72668C9.57402 4.72668 9.56244 4.73826 9.55087 4.73826C9.53929 4.73826 9.52772 4.73826 9.51613 4.74985C9.50456 4.74985 9.49298 4.76144 9.48141 4.76144C9.46983 4.76144 9.45826 4.77303 9.44668 4.77303C9.43509 4.77303 9.42352 4.7846 9.41194 4.7846C9.40037 4.7846 9.38879 4.79619 9.37722 4.79619C9.36564 4.79619 9.35406 4.80778 9.34248 4.81936C9.33091 4.83095 9.31933 4.83095 9.30776 4.84253C9.29618 4.85411 9.28461 4.85411 9.27303 4.8657C9.26144 4.87729 9.24987 4.87729 9.24987 4.88888C9.22672 4.90045 9.21514 4.92363 9.19199 4.93521L7.59439 6.55713C7.29341 6.85834 7.29341 7.34491 7.59439 7.64613C7.74489 7.79673 7.94171 7.86624 8.13851 7.86624C8.33531 7.86624 8.53212 7.79673 8.68261 7.64613L8.98361 7.34491V9.53449C8.98361 9.96314 9.33091 10.3107 9.75924 10.3107C10.1876 10.3107 10.5349 9.96314 10.5349 9.53449V7.34491L10.8359 7.64613C10.9864 7.79673 11.1832 7.86624 11.38 7.86624C11.5768 7.86624 11.7736 7.79673 11.9241 7.64613C12.2251 7.34491 12.2251 6.85834 11.9241 6.55713L10.2918 4.9468C10.2686 4.92363 10.257 4.91204 10.2339 4.90045C10.2223 4.88888 10.2107 4.88888 10.2107 4.87729C10.1992 4.8657 10.1876 4.8657 10.176 4.85411C10.1644 4.84253 10.1529 4.84253 10.1413 4.83095C10.1297 4.81936 10.1181 4.81936 10.1066 4.80778C10.095 4.79619 10.0834 4.79619 10.0718 4.79619C10.0602 4.79619 10.0487 4.7846 10.0371 4.7846C10.0255 4.7846 10.0139 4.77303 10.0024 4.77303C9.99078 4.77303 9.97921 4.76144 9.96763 4.76144C9.95606 4.76144 9.94448 4.74985 9.93289 4.74985C9.92132 4.74985 9.90974 4.73826 9.89817 4.73826C9.88659 4.73826 9.87502 4.73826 9.85186 4.72668C9.84028 4.72668 9.82871 4.72668 9.81713 4.72668C9.80556 4.71509 9.78241 4.71509 9.74767 4.71509Z" fill="#FA7616"/>
<path d="M17.4695 4.71509C17.4462 4.71509 17.4231 4.71509 17.3884 4.71509C17.3769 4.71509 17.3652 4.71509 17.3536 4.71509C17.3421 4.71509 17.3305 4.71509 17.3074 4.72668C17.2957 4.72668 17.2842 4.73826 17.2726 4.73826C17.2611 4.73826 17.2495 4.73826 17.2379 4.74985C17.2264 4.74985 17.2147 4.76144 17.2032 4.76144C17.1916 4.76144 17.18 4.77303 17.1685 4.77303C17.1569 4.77303 17.1452 4.7846 17.1337 4.7846C17.1221 4.7846 17.1106 4.79619 17.099 4.79619C17.0874 4.79619 17.0759 4.80778 17.0642 4.81936C17.0527 4.83095 17.0411 4.83095 17.0295 4.84253C17.018 4.85411 17.0064 4.85411 16.9947 4.8657C16.9832 4.87729 16.9716 4.87729 16.9716 4.88888C16.9485 4.90045 16.9369 4.92363 16.9137 4.93521L15.3046 6.54554C15.0036 6.84675 15.0036 7.33333 15.3046 7.63454C15.4551 7.78514 15.6519 7.85465 15.8487 7.85465C16.0455 7.85465 16.2424 7.78514 16.3929 7.63454L16.6939 7.33333V9.5229C16.6939 9.95155 17.0411 10.2991 17.4695 10.2991C17.8977 10.2991 18.2451 9.95155 18.2451 9.5229V7.34491L18.5461 7.64613C18.6966 7.79673 18.8934 7.86624 19.0902 7.86624C19.287 7.86624 19.4837 7.79673 19.6342 7.64613C19.9352 7.34491 19.9352 6.85834 19.6342 6.55713L18.0251 4.9468C18.002 4.92363 17.9904 4.91204 17.9672 4.90045C17.9556 4.88888 17.9441 4.88888 17.9441 4.87729C17.9325 4.8657 17.921 4.8657 17.9094 4.85411C17.8977 4.84253 17.8862 4.84253 17.8746 4.83095C17.8631 4.81936 17.8515 4.81936 17.8399 4.80778C17.8284 4.79619 17.8167 4.79619 17.8051 4.79619C17.7936 4.79619 17.782 4.7846 17.7705 4.7846C17.7589 4.7846 17.7472 4.77303 17.7357 4.77303C17.7241 4.77303 17.7126 4.76144 17.701 4.76144C17.6894 4.76144 17.6779 4.74985 17.6662 4.74985C17.6546 4.74985 17.6431 4.73826 17.6315 4.73826C17.62 4.73826 17.6084 4.73826 17.5852 4.72668C17.5736 4.72668 17.5621 4.72668 17.5505 4.72668C17.5274 4.71509 17.5041 4.71509 17.4695 4.71509Z" fill="#FA7616"/>
<path d="M38.7126 22.0813C38.6895 22.0813 38.6663 22.0813 38.6316 22.0813C38.62 22.0813 38.6084 22.0813 38.5969 22.0813C38.5853 22.0813 38.5738 22.0813 38.5505 22.0928C38.539 22.0928 38.5274 22.1044 38.5159 22.1044C38.5043 22.1044 38.4926 22.1044 38.4811 22.116C38.4695 22.116 38.4579 22.1275 38.4464 22.1275C38.4348 22.1275 38.4233 22.1392 38.4116 22.1392C38.4 22.1392 38.3885 22.1508 38.3769 22.1508C38.3654 22.1508 38.3538 22.1624 38.3421 22.1624C38.3306 22.1624 38.319 22.1739 38.3074 22.1855C38.2959 22.1972 38.2843 22.1972 38.2728 22.2087C38.2611 22.2203 38.2495 22.2203 38.238 22.2319C38.2264 22.2434 38.2149 22.2434 38.2149 22.255C38.1916 22.2667 38.1801 22.2898 38.1569 22.3014L36.5478 23.9117C36.2468 24.2129 36.2468 24.6995 36.5478 25.0007C36.6983 25.1513 36.8951 25.2208 37.0919 25.2208C37.2886 25.2208 37.4855 25.1513 37.636 25.0007L37.937 24.6995V26.889C37.937 27.3177 38.2843 27.6653 38.7126 27.6653C39.141 27.6653 39.4883 27.3177 39.4883 26.889V24.6995L39.7893 25.0007C39.9398 25.1513 40.1365 25.2208 40.3334 25.2208C40.5301 25.2208 40.727 25.1513 40.8775 25.0007C41.1785 24.6995 41.1785 24.2129 40.8775 23.9117L39.2683 22.3014C39.2451 22.2782 39.2336 22.2667 39.2104 22.255C39.1989 22.2434 39.1873 22.2434 39.1873 22.2319C39.1756 22.2203 39.1641 22.2203 39.1525 22.2087C39.141 22.1972 39.1294 22.1972 39.1178 22.1855C39.1063 22.1739 39.0946 22.1739 39.0831 22.1624C39.0715 22.1508 39.0599 22.1508 39.0484 22.1508C39.0368 22.1508 39.0253 22.1392 39.0136 22.1392C39.002 22.1392 38.9905 22.1275 38.9789 22.1275C38.9673 22.1275 38.9558 22.116 38.9441 22.116C38.9326 22.116 38.921 22.1044 38.9094 22.1044C38.8979 22.1044 38.8863 22.0928 38.8748 22.0928C38.8631 22.0928 38.8515 22.0928 38.8284 22.0813C38.8168 22.0813 38.8053 22.0813 38.7936 22.0813C38.7589 22.0813 38.7358 22.0813 38.7126 22.0813Z" fill="#FA7616"/>
<path d="M46.4342 22.0813C46.4111 22.0813 46.388 22.0813 46.3532 22.0813C46.3416 22.0813 46.3301 22.0813 46.3184 22.0813C46.3069 22.0813 46.2953 22.0813 46.2722 22.0928C46.2606 22.0928 46.2491 22.1044 46.2374 22.1044C46.2258 22.1044 46.2143 22.1044 46.2027 22.116C46.1912 22.116 46.1796 22.1275 46.1679 22.1275C46.1564 22.1275 46.1448 22.1392 46.1332 22.1392C46.1217 22.1392 46.1101 22.1508 46.0986 22.1508C46.0869 22.1508 46.0753 22.1624 46.0638 22.1624C46.0522 22.1624 46.0407 22.1739 46.0291 22.1855C46.0175 22.1972 46.0059 22.1972 45.9943 22.2087C45.9827 22.2203 45.9712 22.2203 45.9596 22.2319C45.9481 22.2434 45.9365 22.2434 45.9365 22.255C45.9133 22.2667 45.9017 22.2898 45.8786 22.3014L44.2695 23.9117C43.9685 24.2129 43.9685 24.6995 44.2695 25.0007C44.42 25.1513 44.6167 25.2208 44.8135 25.2208C45.0103 25.2208 45.2071 25.1513 45.3576 25.0007L45.6586 24.6995V26.889C45.6586 27.3177 46.006 27.6653 46.4342 27.6653C46.8626 27.6653 47.2099 27.3177 47.2099 26.889V24.6995L47.5108 25.0007C47.6613 25.1513 47.8582 25.2208 48.055 25.2208C48.2518 25.2208 48.4486 25.1513 48.5991 25.0007C48.9001 24.6995 48.9001 24.2129 48.5991 23.9117L46.99 22.3014C46.9668 22.2782 46.9552 22.2667 46.9321 22.255C46.9205 22.2434 46.9089 22.2434 46.9089 22.2319C46.8973 22.2203 46.8857 22.2203 46.8742 22.2087C46.8626 22.1972 46.851 22.1972 46.8395 22.1855C46.8278 22.1739 46.8163 22.1739 46.8047 22.1624C46.7931 22.1508 46.7816 22.1508 46.77 22.1508C46.7585 22.1508 46.7468 22.1392 46.7352 22.1392C46.7237 22.1392 46.7121 22.1275 46.7006 22.1275C46.689 22.1275 46.6773 22.116 46.6658 22.116C46.6542 22.116 46.6426 22.1044 46.6311 22.1044C46.6194 22.1044 46.608 22.0928 46.5963 22.0928C46.5847 22.0928 46.5732 22.0928 46.5501 22.0813C46.5385 22.0813 46.5268 22.0813 46.5153 22.0813C46.4806 22.0813 46.4575 22.0813 46.4342 22.0813Z" fill="#FA7616"/>
<path d="M9.74753 22.0813C9.72437 22.0813 9.70122 22.0813 9.6665 22.0813C9.65491 22.0813 9.64333 22.0813 9.63176 22.0813C9.62018 22.0813 9.60861 22.0813 9.58546 22.0928C9.57387 22.0928 9.5623 22.1044 9.55072 22.1044C9.53915 22.1044 9.52757 22.1044 9.516 22.116C9.50442 22.116 9.49285 22.1275 9.48126 22.1275C9.46968 22.1275 9.45811 22.1392 9.44653 22.1392C9.43496 22.1392 9.42338 22.1508 9.41181 22.1508C9.40022 22.1508 9.38865 22.1624 9.37707 22.1624C9.3655 22.1624 9.35392 22.1739 9.34235 22.1855C9.33077 22.1972 9.31918 22.1972 9.30761 22.2087C9.29603 22.2203 9.28446 22.2203 9.27288 22.2319C9.26131 22.2434 9.24973 22.2434 9.24973 22.255C9.22657 22.2667 9.215 22.2898 9.19185 22.3014L7.58268 23.9117C7.28168 24.2129 7.28168 24.6995 7.58268 25.0007C7.73317 25.1513 7.92998 25.2208 8.12678 25.2208C8.3236 25.2208 8.5204 25.1513 8.6709 25.0007L8.97188 24.6995V26.889C8.97188 27.3177 9.31918 27.6653 9.74753 27.6653C10.1759 27.6653 10.5232 27.3177 10.5232 26.889V24.6995L10.8242 25.0007C10.9747 25.1513 11.1715 25.2208 11.3683 25.2208C11.5651 25.2208 11.7619 25.1513 11.9124 25.0007C12.2134 24.6995 12.2134 24.2129 11.9124 23.9117L10.3032 22.3014C10.2801 22.2782 10.2685 22.2667 10.2453 22.255C10.2337 22.2434 10.2222 22.2434 10.2222 22.2319C10.2106 22.2203 10.199 22.2203 10.1874 22.2087C10.1759 22.1972 10.1643 22.1972 10.1527 22.1855C10.1411 22.1739 10.1296 22.1739 10.118 22.1624C10.1064 22.1508 10.0948 22.1508 10.0833 22.1508C10.0717 22.1508 10.0601 22.1392 10.0485 22.1392C10.0369 22.1392 10.0254 22.1275 10.0138 22.1275C10.0022 22.1275 9.99063 22.116 9.97906 22.116C9.96748 22.116 9.95591 22.1044 9.94433 22.1044C9.93276 22.1044 9.92118 22.0928 9.9096 22.0928C9.89802 22.0928 9.88645 22.0928 9.8633 22.0813C9.85172 22.0813 9.84015 22.0813 9.82857 22.0813C9.80541 22.0813 9.78226 22.0813 9.74753 22.0813Z" fill="#FA7616"/>
<path d="M17.4695 22.0813C17.4462 22.0813 17.4231 22.0813 17.3884 22.0813C17.3769 22.0813 17.3652 22.0813 17.3536 22.0813C17.3421 22.0813 17.3305 22.0813 17.3074 22.0928C17.2957 22.0928 17.2842 22.1044 17.2726 22.1044C17.2611 22.1044 17.2495 22.1044 17.2379 22.116C17.2264 22.116 17.2147 22.1275 17.2032 22.1275C17.1916 22.1275 17.18 22.1392 17.1685 22.1392C17.1569 22.1392 17.1452 22.1508 17.1337 22.1508C17.1221 22.1508 17.1106 22.1624 17.099 22.1624C17.0874 22.1624 17.0759 22.1739 17.0642 22.1855C17.0527 22.1972 17.0411 22.1972 17.0295 22.2087C17.018 22.2203 17.0064 22.2203 16.9947 22.2319C16.9832 22.2434 16.9716 22.2434 16.9716 22.255C16.9485 22.2667 16.9369 22.2898 16.9137 22.3014L15.3046 23.9117C15.0036 24.2129 15.0036 24.6995 15.3046 25.0007C15.4551 25.1513 15.6519 25.2208 15.8487 25.2208C16.0455 25.2208 16.2424 25.1513 16.3929 25.0007L16.6939 24.6995V26.889C16.6939 27.3177 17.0411 27.6653 17.4695 27.6653C17.8977 27.6653 18.2451 27.3177 18.2451 26.889V24.6995L18.5461 25.0007C18.6966 25.1513 18.8934 25.2208 19.0902 25.2208C19.287 25.2208 19.4837 25.1513 19.6342 25.0007C19.9352 24.6995 19.9352 24.2129 19.6342 23.9117L18.0251 22.3014C18.002 22.2782 17.9904 22.2667 17.9672 22.255C17.9556 22.2434 17.9441 22.2434 17.9441 22.2319C17.9325 22.2203 17.921 22.2203 17.9094 22.2087C17.8977 22.1972 17.8862 22.1972 17.8746 22.1855C17.863 22.1739 17.8515 22.1739 17.8399 22.1624C17.8284 22.1508 17.8167 22.1508 17.8051 22.1508C17.7936 22.1508 17.782 22.1392 17.7705 22.1392C17.7589 22.1392 17.7472 22.1275 17.7357 22.1275C17.7241 22.1275 17.7126 22.116 17.701 22.116C17.6894 22.116 17.6779 22.1044 17.6662 22.1044C17.6546 22.1044 17.6431 22.0928 17.6315 22.0928C17.62 22.0928 17.6084 22.0928 17.5852 22.0813C17.5736 22.0813 17.5621 22.0813 17.5505 22.0813C17.5274 22.0813 17.5041 22.0813 17.4695 22.0813Z" fill="#FA7616"/>
</g>
<defs>
<clipPath id="clip0_337_21147">
<rect width="100" height="58.75" fill="white"/>
</clipPath>
</defs>
</svg>
